D:\PredSimResults\Vitruvian_Man\IG_v18ms_ATx70.mot
version=1
nRows=18
nColumns=31
inDegrees=yes
endheader
                time	         pelvis_tilt	           pelvis_tx	           pelvis_ty	       hip_flexion_r	        knee_angle_r	       ankle_angle_r	       hip_flexion_l	        knee_angle_l	       ankle_angle_l	    lumbar_extension	          arm_flex_r	          arm_flex_l	hamstrings_r/activation	bifemsh_r/activation	glut_max_r/activation	iliopsoas_r/activation	rect_fem_r/activation	  vasti_r/activation	gastroc_r/activation	 soleus_r/activation	tib_ant_r/activation	hamstrings_l/activation	bifemsh_l/activation	glut_max_l/activation	iliopsoas_l/activation	rect_fem_l/activation	  vasti_l/activation	gastroc_l/activation	 soleus_l/activation	tib_ant_l/activation	
          1.21701234	        -11.33303174	          2.17207094	          0.97996544	         -4.10822449	        -13.54219685	         -7.59759143	         29.87426214	          1.86855857	          4.20487558	         -2.94318479	          6.35878002	          6.33848993	          0.05000069	          0.14749573	          0.05000032	          0.58524726	          0.05000190	          0.05000026	          0.28336375	          0.21078001	          0.05000012	          0.62100445	          0.05000476	          0.14921455	          0.05000240	          0.06443923	          0.07244424	          0.05000066	          0.06443553	          0.54020783	
          1.22512575	        -11.62620287	          2.19082221	          0.97792981	         -3.17904219	        -16.29658492	         -9.36844442	         29.03598238	          2.39492885	          3.36356343	         -1.95494544	          5.62288534	          5.60242434	          0.05000026	          0.12992695	          0.05000021	          0.51553486	          0.11673091	          0.05000022	          0.24961055	          0.18567269	          0.05000054	          0.54703438	          0.05000218	          0.16989709	          0.05000070	          0.05676372	          0.06383117	          0.05676093	          0.05676131	          0.70160607	
          1.23323917	        -11.90414147	          2.20954719	          0.97588540	         -2.06984932	        -19.27393730	        -11.61968968	         28.21237295	          2.50140318	          2.44389763	         -0.97134081	          4.87784243	          4.85728730	          0.05524259	          0.11445099	          0.05000119	          0.45412631	          0.13709303	          0.05000020	          0.21987792	          0.16355606	          0.28257152	          0.48187387	          0.12769260	          0.21592123	          0.05000023	          0.05000246	          0.05622998	          0.05000025	          0.05000018	          0.80635012	
          1.24135259	        -12.17849516	          2.22786715	          0.97413700	         -0.78628906	        -22.38517454	        -14.17078229	         27.36833117	          2.82787910	          0.57467897	         -0.03575366	          4.17843141	          4.15787003	          0.05000051	          0.10081868	          0.05000049	          0.40003252	          0.25138398	          0.05000017	          0.19368710	          0.14407390	          0.24891268	          0.42447501	          0.12163611	          0.22666755	          0.05000025	          0.05000055	          0.05000445	          0.05000029	          0.05000010	          0.87432626	
          1.24946600	        -12.44183518	          2.24558103	          0.97287940	          0.60523066	        -25.51917374	        -15.64445838	         26.55025093	          3.23068313	         -1.80554366	          0.81119650	          3.55771896	          3.53724548	          0.05000059	          0.08881084	          0.05000035	          0.35238218	          0.32561602	          0.05000019	          0.17061595	          0.12691238	          0.29729112	          0.37391342	          0.10714960	          0.22633394	          0.05000031	          0.05000088	          0.05001195	          0.05000034	          0.05000014	          0.91844100	
          1.25757942	        -12.68618396	          2.26267404	          0.97225667	          2.03433167	        -28.51589003	        -15.87678395	         25.78020370	          3.52641174	         -3.88698579	          1.55299570	          3.02150714	          3.00122098	          0.05000077	          0.10337920	          0.05000027	          0.31040778	          0.40652332	          0.05000012	          0.15029295	          0.11179507	          0.42082495	          0.32937472	          0.09438813	          0.23053619	          0.05000034	          0.05000089	          0.05001081	          0.05000036	          0.05000016	          0.94707029	
          1.26569283	        -12.90604682	          2.27920996	          0.97232709	          3.44467130	        -31.21048357	        -15.57640790	         25.03946481	          3.71247093	         -5.52232103	          2.18786600	          2.56355491	          2.54355704	          0.05000087	          0.13207701	          0.05000026	          0.27343324	          0.47357363	          0.05000012	          0.13239075	          0.09847848	          0.41329779	          0.29014116	          0.08314636	          0.23541940	          0.05000035	          0.05000091	          0.05001274	          0.05000040	          0.05000018	          0.96564994	
          1.27380625	        -13.09518534	          2.29527553	          0.97306867	          4.79755454	        -33.51404160	        -15.10134562	         24.30688400	          3.79587810	         -6.61148072	          2.71751437	          2.17457293	          2.15496162	          0.05000104	          0.16313590	          0.05000027	          0.24086306	          0.52262066	          0.05000012	          0.11662100	          0.08674812	          0.41312360	          0.25558083	          0.07324349	          0.23972214	          0.05000033	          0.05000087	          0.05001647	          0.05000046	          0.05000021	          0.97770761	
          1.28191966	        -13.24698237	          2.31094814	          0.97442953	          6.06937818	        -35.40080079	        -14.47063114	         23.56098817	          3.79184519	         -7.10324193	          3.14263491	          1.84675418	          1.82762303	          0.05000091	          0.20573969	          0.05000028	          0.21217329	          0.55189219	          0.05000015	          0.10272967	          0.07641503	          0.40112293	          0.22513713	          0.06452022	          0.23740165	          0.05000033	          0.05000089	          0.05002285	          0.05000060	          0.05000030	          0.98553267	
          1.29003308	        -13.35516668	          2.32628767	          0.97635058	          7.24977734	        -36.88117339	        -13.67867168	         22.77976469	          3.72947589	         -7.03009862	          3.46236011	          1.57472978	          1.55616699	          0.05000115	          0.26464898	          0.05000030	          0.19872778	          0.56042693	          0.05000017	          0.09049302	          0.06731279	          0.38660754	          0.19831976	          0.05683632	          0.23127302	          0.05000031	          0.05000085	          0.05004616	          0.05000098	          0.05000059	          0.99061057	
          1.29814649	        -13.41441433	          2.34134149	          0.97875163	          8.34105557	        -37.99315682	        -12.80989654	         21.94505145	          3.64284029	         -6.50397553	          3.67572145	          1.35468397	          1.33677118	          0.05000097	          0.33688624	          0.05000032	          0.19711832	          0.55401711	          0.05000020	          0.07971395	          0.05929478	          0.36761893	          0.17469677	          0.05006909	          0.21743000	          0.05000030	          0.05000083	          0.05027258	          0.05000158	          0.05000079	          0.90094875	
          1.30625991	        -13.42073086	          2.35615102	          0.98150674	          9.35587696	        -38.80600170	        -11.89409546	         21.04417905	          3.57599039	         -5.78315186	          3.78314275	          1.18332159	          1.16613207	          0.05000083	          0.41794488	          0.05000033	          0.20050181	          0.53573588	          0.05000023	          0.07021887	          0.05223188	          0.34982676	          0.15388768	          0.05000758	          0.20053365	          0.05000030	          0.05000080	          0.05042291	          0.06203398	          0.05000065	          0.79364117	
          1.31437333	        -13.37136019	          2.37074824	          0.98445230	         10.31476352	        -39.40898908	        -10.94067282	         20.07714366	          3.54714057	         -5.07827736	          3.78585017	          1.05837802	          1.04197535	          0.05000088	          0.50438522	          0.05000035	          0.20657651	          0.51154712	          0.05000025	          0.06185482	          0.05000017	          0.33908512	          0.13555735	          0.05000827	          0.18490641	          0.05000028	          0.05000075	          0.05114536	          0.08587852	          0.05000059	          0.70467454	
          1.32248674	        -13.26566397	          2.38514356	          0.98743598	         11.24562953	        -39.89411263	        -10.03836719	         19.05477493	          3.54814310	         -4.49611983	          3.68486825	          0.98014861	          0.96458755	          0.05000103	          0.58729077	          0.05000036	          0.21353887	          0.48623665	          0.05000024	          0.05448716	          0.05000018	          0.33407744	          0.11941059	          0.05000724	          0.17232342	          0.05000027	          0.05000072	          0.05501705	          0.10594073	          0.05000055	          0.64223593	
          1.33060016	        -13.10486540	          2.39932942	          0.99033897	         12.17802287	        -40.34788913	         -9.22913726	         17.99312426	          3.55657499	         -4.05863743	          3.48097963	          0.95103648	          0.93636467	          0.05000118	          0.65305476	          0.05000034	          0.21981026	          0.46304513	          0.05000022	          0.05000081	          0.05000019	          0.33406128	          0.10518750	          0.05000683	          0.16300656	          0.05000026	          0.05000069	          0.05872363	          0.12568072	          0.05000051	          0.60138741	
          1.33871357	        -12.89191148	          2.41329083	          0.99307993	         13.13717645	        -40.83986625	         -8.46871901	         16.90914329	          3.54646390	         -3.73840546	          3.17590050	          0.97406579	          0.96032549	          0.05000135	          0.68815361	          0.05000032	          0.22410371	          0.44379249	          0.05000019	          0.05000118	          0.05000019	          0.33817743	          0.09266014	          0.05000671	          0.15630903	          0.05000026	          0.05000068	          0.06070305	          0.14424140	          0.05000051	          0.57505745	
          1.34682699	        -12.63118474	          2.42701525	          0.99561110	         14.14031755	        -41.40958015	         -7.73647210	         15.81796867	          3.49452571	         -3.48430458	          2.77325284	          1.05151817	          1.03874766	          0.05000132	          0.68455946	          0.05000029	          0.22583379	          0.42898067	          0.05000017	          0.05000113	          0.05000019	          0.34386532	          0.08207589	          0.05000688	          0.15086295	          0.05000026	          0.05000068	          0.06097703	          0.16224201	          0.05000052	          0.55590735	
          1.35494040	        -12.32813256	          2.44049938	          0.99790950	         15.19399427	        -42.06349853	         -7.03085138	         14.73132588	          3.38401411	         -3.24425952	          2.27908399	          1.18402532	          1.17225989	          0.05000099	          0.63929571	          0.05000027	          0.22510335	          0.41783411	          0.05000016	          0.05000112	          0.05000019	          0.35038120	          0.07406339	          0.05000742	          0.14532048	          0.05000028	          0.05000070	          0.05827371	          0.18005895	          0.05000054	          0.53816695	
